<?xml version="1.0" encoding="utf-8"?>
<!-- Generator: Adobe Illustrator 19.0.0, SVG Export Plug-In . SVG Version: 6.00 Build 0)  -->
<svg version="1.1" id="Warstwa_1" xmlns="http://www.w3.org/2000/svg" xmlns:xlink="http://www.w3.org/1999/xlink" x="0px" y="0px"
	 viewBox="0 0 960 560" style="enable-background:new 0 0 960 560;" xml:space="preserve">
<style type="text/css">
	.st0{fill:url(#XMLID_21_);}
	.st1{clip-path:url(#XMLID_31_);}
	.st2{fill:url(#XMLID_32_);}
	.st3{fill:url(#XMLID_33_);}
	.st4{fill:url(#XMLID_34_);}
	.st5{fill:url(#XMLID_39_);}
	.st6{fill:url(#XMLID_40_);}
	.st7{fill:url(#XMLID_41_);}
	.st8{fill:url(#XMLID_77_);}
	.st9{fill:url(#XMLID_82_);}
	.st10{fill:url(#XMLID_83_);}
	.st11{fill:url(#XMLID_84_);}
	.st12{fill:url(#XMLID_85_);}
	.st13{fill:url(#XMLID_86_);}
	.st14{fill:url(#XMLID_123_);}
	.st15{fill:url(#XMLID_124_);}
	.st16{fill:url(#XMLID_125_);}
	.st17{fill:url(#XMLID_126_);}
	.st18{fill:url(#XMLID_127_);}
	.st19{fill:url(#XMLID_128_);}
	.st20{fill:url(#XMLID_129_);}
	.st21{fill:url(#XMLID_130_);}
	.st22{fill:url(#XMLID_131_);}
	.st23{fill:url(#XMLID_132_);}
	.st24{fill:url(#XMLID_133_);}
	.st25{fill:url(#XMLID_134_);}
</style>
<linearGradient id="XMLID_21_" gradientUnits="userSpaceOnUse" x1="100" y1="-100" x2="860" y2="660">
	<stop  offset="0" style="stop-color:#0000FF"/>
	<stop  offset="1" style="stop-color:#D61E79"/>
</linearGradient>
<rect id="XMLID_1_" class="st0" width="960" height="560"/>
<g id="XMLID_12_">
	<defs>
		<rect id="XMLID_10_" width="960" height="560"/>
	</defs>
	<clipPath id="XMLID_31_">
		<use xlink:href="#XMLID_10_"  style="overflow:visible;"/>
	</clipPath>
	<g id="XMLID_2_" class="st1">
		
			<image style="overflow:visible;opacity:0.55;" width="666" height="651" id="XMLID_172_" xlink:href="CCF117B2.png"  transform="matrix(1 0 0 1 -211 -130)">
		</image>
		<g id="XMLID_143_">
			<g id="XMLID_163_">
				<linearGradient id="XMLID_32_" gradientUnits="userSpaceOnUse" x1="-33.1777" y1="179.8412" x2="211.3503" y2="143.7818">
					<stop  offset="0" style="stop-color:#F15A24"/>
					<stop  offset="0.4197" style="stop-color:#EF4345"/>
					<stop  offset="1" style="stop-color:#ED1E79"/>
				</linearGradient>
				<path id="XMLID_166_" class="st2" d="M380.1,47.8L53.8,374.3c-5.5,5.5-14.3,5.5-19.8,0l-4.8-4.8c-5.5-5.5-5.5-14.3,0-19.8
					l58.6-58.6c5.5-5.5,5.5-14.3,0-19.8l-4.1-4.1c-5.5-5.5-14.3-5.5-19.8,0l-27.9,28c-5.5,5.5-14.3,5.5-19.8,0l-4.1-4.1
					c-5.5-5.5-14.3-5.5-19.8,0l-65.4,65.5c-5.5,5.5-14.3,5.5-19.8,0l-4.8-4.8c-5.5-5.5-5.5-14.3,0-19.8l12.4-12.4l5.3-5.3
					c2.4-2.4,3.8-5.5,4-8.7c0.3-3.9-1-8-4-11l-4.1-4.1c-5.1-5.1-13.1-5.4-18.6-1c-0.2,0.2-0.4,0.3-0.6,0.5l-0.3,0.7l-6.9,7.3h0
					l-6,5.6l-16.7,16.4c-5.5,5.5-14.3,5.3-19.8-0.1l-4.1-4.1c-5.5-5.5-5.5-14.3,0-19.8L200.9-62c5.5-5.5,14.3-5.5,19.8,0l4.1,4.1
					c5.5,5.5,5.5,14.3,0,19.8l-44,44.1l-3.4,3.4l-9.5,9.5c-0.1,0.1-0.2,0.3-0.3,0.4c-4.7,5.5-4.5,13.8,0.7,19l4.1,4.1
					c2.5,2.5,5.7,3.9,9,4.1c3.7,0.2,7.6-1.1,10.5-3.8l25.4-25.5c5.5-5.5,14.3-5.5,19.8,0l4.8,4.8c5.5,5.5,14.3,5.5,19.8,0l75.6-75.7
					c5.5-5.5,14.3-5.5,19.8,0l4.1,4.1c5.5,5.5,5.5,14.3,0,19.8L336.7-5.6l-5,5c-5.5,5.5-5.5,14.3,0,19.8l4.1,4.1
					c2.7,2.7,6.3,4.1,9.9,4.1c3.6,0,7.2-1.4,9.9-4.1c5.5-5.5,14.3-5.5,19.8,0l4.8,4.8C385.6,33.4,385.6,42.3,380.1,47.8z"/>
				<linearGradient id="XMLID_33_" gradientUnits="userSpaceOnUse" x1="-45.7457" y1="-48.553" x2="183.1142" y2="-82.3019">
					<stop  offset="0" style="stop-color:#F15A24"/>
					<stop  offset="0.4197" style="stop-color:#EF4345"/>
					<stop  offset="1" style="stop-color:#ED1E79"/>
				</linearGradient>
				<path id="XMLID_165_" class="st3" d="M243.9-104.9L243.9-104.9c-6.6,6.6-6.6,17.3,0,23.9l0,0c6.6,6.6,17.3,6.6,23.8,0l0,0
					c6.6-6.6,6.6-17.3,0-23.9l0,0C261.1-111.5,250.4-111.5,243.9-104.9z"/>
				<linearGradient id="XMLID_34_" gradientUnits="userSpaceOnUse" x1="-0.176" y1="403.6556" x2="228.929" y2="369.8705">
					<stop  offset="0" style="stop-color:#F15A24"/>
					<stop  offset="0.4197" style="stop-color:#EF4345"/>
					<stop  offset="1" style="stop-color:#ED1E79"/>
				</linearGradient>
				<path id="XMLID_164_" class="st4" d="M12.3,415.9L12.3,415.9c6.6-6.6,6.6-17.3,0-23.9l-0.7-0.7c-6.6-6.6-17.3-6.6-23.8,0l0,0
					c-6.6,6.6-6.6,17.3,0,23.9l0.7,0.7C-5,422.5,5.7,422.5,12.3,415.9z"/>
			</g>
		</g>
	</g>
	<g id="XMLID_9_" class="st1">
	</g>
	<g id="XMLID_15_" class="st1">
		
			<image style="overflow:visible;opacity:0.55;" width="416" height="417" id="XMLID_119_" xlink:href="CCF117B6.png"  transform="matrix(1 0 0 1 -154 -2)">
		</image>
		<g id="XMLID_78_">
			<linearGradient id="XMLID_39_" gradientUnits="userSpaceOnUse" x1="-11.7553" y1="111.413" x2="59.7243" y2="182.0209">
				<stop  offset="4.081633e-002" style="stop-color:#000000"/>
				<stop  offset="0.6327" style="stop-color:#000000;stop-opacity:0.4554"/>
				<stop  offset="0.9235" style="stop-color:#000000;stop-opacity:0.15"/>
			</linearGradient>
			<path id="XMLID_118_" class="st5" d="M-75.7,305.6c0.3-3.9-1-8-4-11l-4.1-4.1c-5.1-5.1-13.1-5.4-18.6-1c-0.2,0.2-0.4,0.3-0.6,0.5
				L167.9,18.8c-0.1,0.1-0.2,0.3-0.3,0.4c-4.7,5.5-4.5,13.8,0.7,19l4.1,4.1c2.5,2.5,5.7,3.9,9,4.1c3.7,0.2,7.6-1.1,10.5-3.8
				L-79.7,314.3C-77.3,311.9-75.9,308.8-75.7,305.6z"/>
		</g>
	</g>
	<g id="XMLID_16_" class="st1">
		
			<image style="overflow:visible;opacity:0.55;" width="412" height="413" id="XMLID_115_" xlink:href="CCF117B1.png"  transform="matrix(1 0 0 1 14 -21)">
		</image>
		<g id="XMLID_76_">
			<linearGradient id="XMLID_40_" gradientUnits="userSpaceOnUse" x1="153.969" y1="90.0979" x2="225.4261" y2="160.6836">
				<stop  offset="4.081633e-002" style="stop-color:#000000"/>
				<stop  offset="0.6327" style="stop-color:#000000;stop-opacity:0.4554"/>
				<stop  offset="0.9235" style="stop-color:#000000;stop-opacity:0.15"/>
			</linearGradient>
			<path id="XMLID_114_" class="st6" d="M87.9,291.1c5.5-5.5,5.5-14.3,0-19.8l-4.1-4.1c-5.5-5.5-14.3-5.5-19.8,0L331.7-0.6
				c-5.5,5.5-5.5,14.3,0,19.8l4.1,4.1c2.7,2.7,6.3,4.1,9.9,4.1c3.6,0,7.2-1.4,9.9-4.1L87.9,291.1z"/>
		</g>
	</g>
	<g id="XMLID_17_" class="st1">
		
			<image style="overflow:visible;opacity:0.55;" width="666" height="565" id="XMLID_113_" xlink:href="CCF117B3.png"  transform="matrix(1 0 0 1 32 180)">
		</image>
		<g id="XMLID_74_">
			<linearGradient id="XMLID_41_" gradientUnits="userSpaceOnUse" x1="210.3617" y1="446.2158" x2="454.8917" y2="410.1561">
				<stop  offset="0" style="stop-color:#3FA9F5"/>
				<stop  offset="0.2175" style="stop-color:#608EDD"/>
				<stop  offset="0.6936" style="stop-color:#B44CA2"/>
				<stop  offset="1" style="stop-color:#ED1E79"/>
			</linearGradient>
			<path id="XMLID_112_" class="st7" d="M623.6,314.1L297.4,640.7c-5.5,5.5-14.3,5.5-19.8,0l-4.8-4.8c-5.5-5.5-5.5-14.3,0-19.8
				l58.6-58.6c5.5-5.5,5.5-14.3,0-19.8l-4.1-4.1c-5.5-5.5-14.3-5.5-19.8,0l-27.9,28c-5.5,5.5-14.3,5.5-19.8,0l-4.1-4.1
				c-5.5-5.5-14.3-5.5-19.8,0L170.7,623c-5.5,5.5-14.3,5.5-19.8,0l-4.8-4.8c-5.5-5.5-5.5-14.3,0-19.8l12.4-12.4l5.3-5.3
				c2.4-2.4,3.8-5.5,4-8.7c0.3-3.9-1-8-4-11l-4.1-4.1c-5.1-5.1-13.1-5.4-18.6-1c-0.2,0.2-0.4,0.3-0.6,0.5l-0.3,1l-6.9,7.6h0l-6,5.2
				l-16.7,16.3c-5.5,5.5-14.3,5.3-19.8-0.2l-4.1-4.2c-5.5-5.5-5.5-14.4,0-19.8l357.6-357.9c5.5-5.5,14.3-5.5,19.8,0l4.1,4.1
				c5.5,5.5,5.5,14.3,0,19.8l-44,44.1l-3.4,3.4l-9.5,9.5c-0.1,0.1-0.2,0.3-0.3,0.4c-4.7,5.5-4.5,13.8,0.7,19l4.1,4.1
				c2.5,2.5,5.7,3.9,9,4.1c3.7,0.2,7.6-1.1,10.5-3.8l25.4-25.5c5.5-5.5,14.3-5.5,19.8,0l4.8,4.8c5.5,5.5,14.3,5.5,19.8,0l75.6-75.7
				c5.5-5.5,14.3-5.5,19.8,0l4.1,4.1c5.5,5.5,5.5,14.3,0,19.8l-24.3,24.3l-5,5c-5.5,5.5-5.5,14.3,0,19.8l4.1,4.1
				c2.7,2.7,6.3,4.1,9.9,4.1c3.6,0,7.2-1.4,9.9-4.1c5.5-5.5,14.3-5.5,19.8,0l4.8,4.8C629.1,299.8,629.1,308.7,623.6,314.1z"/>
		</g>
	</g>
	<g id="XMLID_11_" class="st1">
		
			<image style="overflow:visible;opacity:0.55;" width="155" height="156" id="XMLID_109_" xlink:href="CCF117B0.png"  transform="matrix(1 0 0 1 176 632)">
		</image>
		<g id="XMLID_72_">
			<linearGradient id="XMLID_77_" gradientUnits="userSpaceOnUse" x1="243.3663" y1="670.0258" x2="472.4713" y2="636.2407">
				<stop  offset="0" style="stop-color:#3FA9F5"/>
				<stop  offset="0.2175" style="stop-color:#608EDD"/>
				<stop  offset="0.6936" style="stop-color:#B44CA2"/>
				<stop  offset="1" style="stop-color:#ED1E79"/>
			</linearGradient>
			<path id="XMLID_108_" class="st8" d="M255.8,682.3L255.8,682.3c6.6-6.6,6.6-17.3,0-23.9l-0.7-0.7c-6.6-6.6-17.3-6.6-23.8,0l0,0
				c-6.6,6.6-6.6,17.3,0,23.9l0.7,0.7C238.5,688.9,249.2,688.9,255.8,682.3z"/>
		</g>
	</g>
	<g id="XMLID_7_" class="st1">
	</g>
	<g id="XMLID_6_" class="st1">
		
			<image style="overflow:visible;opacity:0.55;" width="416" height="416" id="XMLID_104_" xlink:href="CCF117BE.png"  transform="matrix(1 0 0 1 90 265)">
		</image>
		<g id="XMLID_70_">
			<linearGradient id="XMLID_82_" gradientUnits="userSpaceOnUse" x1="231.7871" y1="377.7832" x2="303.2666" y2="448.391">
				<stop  offset="4.081633e-002" style="stop-color:#000000"/>
				<stop  offset="0.6327" style="stop-color:#000000;stop-opacity:0.4554"/>
				<stop  offset="0.9235" style="stop-color:#000000;stop-opacity:0.15"/>
			</linearGradient>
			<path id="XMLID_103_" class="st9" d="M167.9,572c0.3-3.9-1-8-4-11l-4.1-4.1c-5.1-5.1-13.1-5.4-18.6-1c-0.2,0.2-0.4,0.3-0.6,0.5
				l270.9-271.1c-0.1,0.1-0.2,0.3-0.3,0.4c-4.7,5.5-4.5,13.8,0.7,19l4.1,4.1c2.5,2.5,5.7,3.9,9,4.1c3.7,0.2,7.6-1.1,10.5-3.8
				L163.8,580.7C166.3,578.3,167.6,575.1,167.9,572z"/>
		</g>
	</g>
	<g id="XMLID_5_" class="st1">
		
			<image style="overflow:visible;opacity:0.55;" width="413" height="413" id="XMLID_100_" xlink:href="CCF117B5.png"  transform="matrix(1 0 0 1 257 245)">
		</image>
		<g id="XMLID_68_">
			<linearGradient id="XMLID_83_" gradientUnits="userSpaceOnUse" x1="397.5113" y1="356.4681" x2="468.9684" y2="427.0538">
				<stop  offset="4.081633e-002" style="stop-color:#000000"/>
				<stop  offset="0.6327" style="stop-color:#000000;stop-opacity:0.4554"/>
				<stop  offset="0.9235" style="stop-color:#000000;stop-opacity:0.15"/>
			</linearGradient>
			<path id="XMLID_99_" class="st10" d="M331.4,557.5c5.5-5.5,5.5-14.3,0-19.8l-4.1-4.1c-5.5-5.5-14.3-5.5-19.8,0l267.7-267.9
				c-5.5,5.5-5.5,14.3,0,19.8l4.1,4.1c2.7,2.7,6.3,4.1,9.9,4.1c3.6,0,7.2-1.4,9.9-4.1L331.4,557.5z"/>
		</g>
	</g>
	<g id="XMLID_27_" class="st1">
		
			<image style="overflow:visible;opacity:0.55;" width="666" height="651" id="XMLID_171_" xlink:href="CCF117B7.png"  transform="matrix(1 0 0 1 648 -20)">
		</image>
		<g id="XMLID_142_">
			<g id="XMLID_159_">
				<linearGradient id="XMLID_84_" gradientUnits="userSpaceOnUse" x1="825.9001" y1="289.8857" x2="1070.428" y2="253.8263">
					<stop  offset="0" style="stop-color:#F15A24"/>
					<stop  offset="0.4197" style="stop-color:#EF4345"/>
					<stop  offset="1" style="stop-color:#ED1E79"/>
				</linearGradient>
				<path id="XMLID_162_" class="st11" d="M1239.2,157.8L912.9,484.4c-5.5,5.5-14.3,5.5-19.8,0l-4.8-4.8c-5.5-5.5-5.5-14.3,0-19.8
					l58.6-58.6c5.5-5.5,5.5-14.3,0-19.8l-4.1-4.1c-5.5-5.5-14.3-5.5-19.8,0l-27.9,28c-5.5,5.5-14.3,5.5-19.8,0l-4.1-4.1
					c-5.5-5.5-14.3-5.5-19.8,0l-65.4,65.5c-5.5,5.5-14.3,5.5-19.8,0l-4.8-4.8c-5.5-5.5-5.5-14.3,0-19.8l12.4-12.4l5.3-5.3
					c2.4-2.4,3.8-5.5,4-8.7c0.3-3.9-1-8-4-11l-4.1-4.1c-5.1-5.1-13.1-5.4-18.6-1c-0.2,0.2-0.4,0.3-0.6,0.5l-0.3,0.7l-6.9,7.3h0
					l-6,5.6L726.2,430c-5.5,5.5-14.3,5.3-19.8-0.1l-4.1-4.1c-5.5-5.5-5.5-14.3,0-19.8L1060,48.1c5.5-5.5,14.3-5.5,19.8,0l4.1,4.1
					c5.5,5.5,5.5,14.3,0,19.8l-44,44.1l-3.4,3.4l-9.5,9.5c-0.1,0.1-0.2,0.3-0.3,0.4c-4.7,5.5-4.5,13.8,0.7,19l4.1,4.1
					c2.5,2.5,5.7,3.9,9,4.1c3.7,0.2,7.6-1.1,10.5-3.8l25.4-25.5c5.5-5.5,14.3-5.5,19.8,0l4.8,4.8c5.5,5.5,14.3,5.5,19.8,0l75.6-75.7
					c5.5-5.5,14.3-5.5,19.8,0l4.1,4.1c5.5,5.5,5.5,14.3,0,19.8l-24.3,24.3l-5,5c-5.5,5.5-5.5,14.3,0,19.8l4.1,4.1
					c2.7,2.7,6.3,4.1,9.9,4.1c3.6,0,7.2-1.4,9.9-4.1c5.5-5.5,14.3-5.5,19.8,0l4.8,4.8C1244.6,143.5,1244.6,152.3,1239.2,157.8z"/>
				<linearGradient id="XMLID_85_" gradientUnits="userSpaceOnUse" x1="813.3319" y1="61.4918" x2="1042.1918" y2="27.7429">
					<stop  offset="0" style="stop-color:#F15A24"/>
					<stop  offset="0.4197" style="stop-color:#EF4345"/>
					<stop  offset="1" style="stop-color:#ED1E79"/>
				</linearGradient>
				<path id="XMLID_161_" class="st12" d="M1102.9,5.1L1102.9,5.1c-6.6,6.6-6.6,17.3,0,23.9v0c6.6,6.6,17.3,6.6,23.8,0v0
					c6.6-6.6,6.6-17.3,0-23.9v0C1120.2-1.5,1109.5-1.5,1102.9,5.1z"/>
				<linearGradient id="XMLID_86_" gradientUnits="userSpaceOnUse" x1="858.9016" y1="513.7004" x2="1088.0066" y2="479.9153">
					<stop  offset="0" style="stop-color:#F15A24"/>
					<stop  offset="0.4197" style="stop-color:#EF4345"/>
					<stop  offset="1" style="stop-color:#ED1E79"/>
				</linearGradient>
				<path id="XMLID_160_" class="st13" d="M871.3,525.9L871.3,525.9c6.6-6.6,6.6-17.3,0-23.9l-0.7-0.7c-6.6-6.6-17.3-6.6-23.8,0l0,0
					c-6.6,6.6-6.6,17.3,0,23.9l0.7,0.7C854.1,532.5,864.8,532.5,871.3,525.9z"/>
			</g>
		</g>
	</g>
	<g id="XMLID_26_" class="st1">
	</g>
	<g id="XMLID_25_" class="st1">
		
			<image style="overflow:visible;opacity:0.55;" width="415" height="417" id="XMLID_95_" xlink:href="CCF117B4.png"  transform="matrix(1 0 0 1 706 108)">
		</image>
		<g id="XMLID_65_">
			<linearGradient id="XMLID_123_" gradientUnits="userSpaceOnUse" x1="847.3223" y1="221.4578" x2="918.8019" y2="292.0657">
				<stop  offset="4.081633e-002" style="stop-color:#000000"/>
				<stop  offset="0.6327" style="stop-color:#000000;stop-opacity:0.4554"/>
				<stop  offset="0.9235" style="stop-color:#000000;stop-opacity:0.15"/>
			</linearGradient>
			<path id="XMLID_94_" class="st14" d="M783.4,415.6c0.3-3.9-1-8-4-11l-4.1-4.1c-5.1-5.1-13.1-5.4-18.6-1c-0.2,0.2-0.4,0.3-0.6,0.5
				L1027,128.9c-0.1,0.1-0.2,0.3-0.3,0.4c-4.7,5.5-4.5,13.8,0.7,19l4.1,4.1c2.5,2.5,5.7,3.9,9,4.1c3.7,0.2,7.6-1.1,10.5-3.8
				L779.4,424.4C781.8,421.9,783.2,418.8,783.4,415.6z"/>
		</g>
	</g>
	<g id="XMLID_24_" class="st1">
		
			<image style="overflow:visible;opacity:0.55;" width="412" height="413" id="XMLID_91_" xlink:href="9ED86D05.png"  transform="matrix(1 0 0 1 873 89)">
		</image>
		<g id="XMLID_63_">
			<linearGradient id="XMLID_124_" gradientUnits="userSpaceOnUse" x1="1013.0466" y1="200.1427" x2="1084.5038" y2="270.7285">
				<stop  offset="4.081633e-002" style="stop-color:#000000"/>
				<stop  offset="0.6327" style="stop-color:#000000;stop-opacity:0.4554"/>
				<stop  offset="0.9235" style="stop-color:#000000;stop-opacity:0.15"/>
			</linearGradient>
			<path id="XMLID_90_" class="st15" d="M946.9,401.2c5.5-5.5,5.5-14.3,0-19.8l-4.1-4.1c-5.5-5.5-14.3-5.5-19.8,0l267.7-267.9
				c-5.5,5.5-5.5,14.3,0,19.8l4.1,4.1c2.7,2.7,6.3,4.1,9.9,4.1c3.6,0,7.2-1.4,9.9-4.1L946.9,401.2z"/>
		</g>
	</g>
	<g id="XMLID_18_" class="st1">
		
			<image style="overflow:visible;opacity:0.55;" width="154" height="155" id="XMLID_88_" xlink:href="9ED86D1B.png"  transform="matrix(1 0 0 1 637 247)">
		</image>
		<g id="XMLID_62_">
			<linearGradient id="XMLID_125_" gradientUnits="userSpaceOnUse" x1="402.4815" y1="329.2301" x2="631.3414" y2="295.4812">
				<stop  offset="0" style="stop-color:#3FA9F5"/>
				<stop  offset="1" style="stop-color:#29ABE2"/>
			</linearGradient>
			<path id="XMLID_87_" class="st16" d="M692.1,272.8L692.1,272.8c-6.6,6.6-6.6,17.3,0,23.9l0,0c6.6,6.6,17.3,6.6,23.8,0v0
				c6.6-6.6,6.6-17.3,0-23.9v0C709.3,266.2,698.7,266.2,692.1,272.8z"/>
		</g>
	</g>
	<g id="XMLID_23_" class="st1">
		
			<image style="overflow:visible;opacity:0.55;" width="155" height="155" id="XMLID_92_" xlink:href="9ED86D1D.png"  transform="matrix(1 0 0 1 800 84)">
		</image>
		<g id="XMLID_60_">
			<linearGradient id="XMLID_126_" gradientUnits="userSpaceOnUse" x1="854.1802" y1="131.6324" x2="880.5998" y2="110.6623">
				<stop  offset="0" style="stop-color:#ED1E79"/>
				<stop  offset="1" style="stop-color:#ED1E79"/>
			</linearGradient>
			<path id="XMLID_89_" class="st17" d="M855.5,109.2L855.5,109.2c-6.6,6.6-6.6,17.3,0,23.9v0c6.6,6.6,17.3,6.6,23.8,0v0
				c6.6-6.6,6.6-17.3,0-23.9v0C872.7,102.6,862.1,102.6,855.5,109.2z"/>
		</g>
	</g>
	<g id="XMLID_8_" class="st1">
		
			<image style="overflow:visible;opacity:0.55;" width="251" height="251" id="XMLID_96_" xlink:href="9ED86D1F.png"  transform="matrix(1 0 0 1 669 118)">
		</image>
		<g id="XMLID_58_">
			<linearGradient id="XMLID_127_" gradientUnits="userSpaceOnUse" x1="719.5955" y1="255.5475" x2="850.1326" y2="151.9359">
				<stop  offset="0" style="stop-color:#3FA9F5"/>
				<stop  offset="0.2175" style="stop-color:#608EDD"/>
				<stop  offset="0.6936" style="stop-color:#B44CA2"/>
				<stop  offset="1" style="stop-color:#ED1E79"/>
			</linearGradient>
			<path id="XMLID_93_" class="st18" d="M821.6,143.1l-97.3,97.3c-5.8,5.8-5.8,15.1,0,20.8l3,3c5.8,5.8,15.1,5.8,20.8,0l97.3-97.3
				c5.8-5.8,5.8-15.1,0-20.8l-3-3C836.7,137.4,827.3,137.4,821.6,143.1z"/>
		</g>
	</g>
	<g id="XMLID_19_" class="st1">
		
			<image style="overflow:visible;opacity:0.55;" width="155" height="154" id="XMLID_98_" xlink:href="9ED86D1C.png"  transform="matrix(1 0 0 1 427 144)">
		</image>
		<g id="XMLID_56_">
			<linearGradient id="XMLID_128_" gradientUnits="userSpaceOnUse" x1="192.8501" y1="225.5068" x2="421.7101" y2="191.7578">
				<stop  offset="0" style="stop-color:#3FA9F5"/>
				<stop  offset="0.2175" style="stop-color:#608EDD"/>
				<stop  offset="0.6936" style="stop-color:#B44CA2"/>
				<stop  offset="1" style="stop-color:#ED1E79"/>
			</linearGradient>
			<path id="XMLID_97_" class="st19" d="M482.5,169.1L482.5,169.1c-6.6,6.6-6.6,17.3,0,23.9l0,0c6.6,6.6,17.3,6.6,23.8,0l0,0
				c6.6-6.6,6.6-17.3,0-23.9l0,0C499.7,162.5,489,162.5,482.5,169.1z"/>
		</g>
	</g>
	<g id="XMLID_14_" class="st1">
		
			<image style="overflow:visible;opacity:0.55;" width="251" height="250" id="XMLID_102_" xlink:href="9ED86D04.png"  transform="matrix(1 0 0 1 460 15)">
		</image>
		<g id="XMLID_54_">
			
				<linearGradient id="XMLID_129_" gradientUnits="userSpaceOnUse" x1="132.3458" y1="214.9394" x2="424.3304" y2="171.8818" gradientTransform="matrix(2.9767 -1.9767 -1.9767 2.9767 -651.1172 651.1171)">
				<stop  offset="0" style="stop-color:#3FA9F5"/>
				<stop  offset="0.2175" style="stop-color:#608EDD"/>
				<stop  offset="0.6936" style="stop-color:#B44CA2"/>
				<stop  offset="1" style="stop-color:#ED1E79"/>
			</linearGradient>
			<path id="XMLID_101_" class="st20" d="M611.9,39.4l-97.3,97.3c-5.8,5.8-5.8,15.1,0,20.8l3,3c5.8,5.8,15.1,5.8,20.8,0l97.3-97.3
				c5.8-5.8,5.8-15.1,0-20.8l-3-3C627,33.7,617.7,33.7,611.9,39.4z"/>
		</g>
	</g>
	<g id="XMLID_22_" class="st1">
		
			<image style="overflow:visible;opacity:0.55;" width="285" height="285" id="XMLID_106_" xlink:href="9ED86D07.png"  transform="matrix(1 0 0 1 427 436)">
		</image>
		<g id="XMLID_52_">
			<linearGradient id="XMLID_130_" gradientUnits="userSpaceOnUse" x1="474.5228" y1="605.8886" x2="644.5914" y2="470.8995">
				<stop  offset="0" style="stop-color:#3FA9F5"/>
				<stop  offset="0.1471" style="stop-color:#529AE7"/>
				<stop  offset="0.4457" style="stop-color:#8372C4"/>
				<stop  offset="0.8654" style="stop-color:#D2338C"/>
				<stop  offset="1" style="stop-color:#ED1E79"/>
			</linearGradient>
			<path id="XMLID_105_" class="st21" d="M611.1,463l-126.9,127c-7.5,7.5-8.9,18.3-3.2,24l3,3c5.8,5.8,16.5,4.3,24-3.2l126.9-127
				c7.5-7.5,8.9-18.3,3.2-24l-3-3C629.3,454,618.6,455.5,611.1,463z"/>
		</g>
	</g>
	<g id="XMLID_36_" class="st1">
		
			<image style="overflow:visible;opacity:0.55;" width="155" height="155" id="XMLID_110_" xlink:href="9ED86D02.png"  transform="matrix(1 0 0 1 278 163)">
		</image>
		<g id="XMLID_51_">
			<linearGradient id="XMLID_131_" gradientUnits="userSpaceOnUse" x1="44.2322" y1="245.2707" x2="273.0921" y2="211.5218">
				<stop  offset="0" style="stop-color:#3FA9F5"/>
				<stop  offset="0.2175" style="stop-color:#608EDD"/>
				<stop  offset="0.6936" style="stop-color:#B44CA2"/>
				<stop  offset="1" style="stop-color:#ED1E79"/>
			</linearGradient>
			<path id="XMLID_107_" class="st22" d="M333.8,188.9L333.8,188.9c-6.6,6.6-6.6,17.3,0,23.9l0,0c6.6,6.6,17.3,6.6,23.8,0l0,0
				c6.6-6.6,6.6-17.3,0-23.9l0,0C351.1,182.3,340.4,182.3,333.8,188.9z"/>
		</g>
	</g>
	<g id="XMLID_35_" class="st1">
		
			<image style="overflow:visible;opacity:0.55;" width="251" height="251" id="XMLID_116_" xlink:href="9ED86D03.png"  transform="matrix(1 0 0 1 148 198)">
		</image>
		<g id="XMLID_79_">
			<linearGradient id="XMLID_132_" gradientUnits="userSpaceOnUse" x1="196.4141" y1="332.7892" x2="330.0526" y2="234.0112">
				<stop  offset="0" style="stop-color:#F15A24"/>
				<stop  offset="0.4197" style="stop-color:#EF4345"/>
				<stop  offset="1" style="stop-color:#ED1E79"/>
			</linearGradient>
			<path id="XMLID_111_" class="st23" d="M299.9,222.8l-97.3,97.3c-5.8,5.8-5.8,15.1,0,20.8l3,3c5.8,5.8,15.1,5.8,20.8,0l97.3-97.3
				c5.8-5.8,5.8-15.1,0-20.8l-3-3C315,217,305.7,217,299.9,222.8z"/>
		</g>
	</g>
	<g id="XMLID_37_" class="st1">
		
			<image style="overflow:visible;opacity:0.55;" width="273" height="273" id="XMLID_120_" xlink:href="9ED86D0B.png"  transform="matrix(1 0 0 1 380 -64)">
		</image>
		<g id="XMLID_81_">
			<linearGradient id="XMLID_133_" gradientUnits="userSpaceOnUse" x1="430.0481" y1="32.259" x2="582.0953" y2="32.259">
				<stop  offset="0" style="stop-color:#F15A24"/>
				<stop  offset="0.4197" style="stop-color:#EF4345"/>
				<stop  offset="1" style="stop-color:#ED1E79"/>
			</linearGradient>
			<path id="XMLID_117_" class="st24" d="M552.4-38L435.9,78.6c-6.9,6.9-7.8,17.2-2.1,22.9l3,3c5.8,5.8,16,4.8,22.9-2.1L576.3-14.1
				c6.9-6.9,7.8-17.2,2.1-22.9l-3-3C569.6-45.8,559.3-44.9,552.4-38z"/>
		</g>
	</g>
	<g id="XMLID_38_" class="st1">
		
			<image style="overflow:visible;opacity:0.55;" width="155" height="154" id="XMLID_122_" xlink:href="9ED86D20.png"  transform="matrix(1 0 0 1 706 7)">
		</image>
		<g id="XMLID_80_">
			<linearGradient id="XMLID_134_" gradientUnits="userSpaceOnUse" x1="472.1835" y1="88.428" x2="701.0434" y2="54.679">
				<stop  offset="0" style="stop-color:#3FA9F5"/>
				<stop  offset="0.2175" style="stop-color:#608EDD"/>
				<stop  offset="0.6936" style="stop-color:#B44CA2"/>
				<stop  offset="1" style="stop-color:#ED1E79"/>
			</linearGradient>
			<path id="XMLID_121_" class="st25" d="M761.8,32L761.8,32c-6.6,6.6-6.6,17.3,0,23.9l0,0c6.6,6.6,17.3,6.6,23.8,0v0
				c6.6-6.6,6.6-17.3,0-23.9v0C779,25.4,768.4,25.4,761.8,32z"/>
		</g>
	</g>
</g>
</svg>
